<!-- Generated by IcoMoon.io -->
<svg version="1.1" xmlns="http://www.w3.org/2000/svg" width="32" height="32" viewBox="0 0 32 32">
<title>dds__add-cir</title>
<path d="M31.86 14c-0.945-7.243-6.617-12.915-13.779-13.851l-0.081-0.009c-0.6-0.088-1.293-0.139-1.999-0.14h-0.001c-8.789 0.062-15.891 7.201-15.891 16 0 8.093 6.008 14.782 13.808 15.851l0.083 0.009c0.6 0.088 1.293 0.139 1.999 0.14h0.001c8.83-0.008 15.986-7.169 15.986-16 0-0.705-0.046-1.399-0.134-2.080l0.009 0.080zM26.4 25.18c-2.552 2.876-6.257 4.679-10.383 4.679-7.655 0-13.86-6.205-13.86-13.86s6.205-13.86 13.86-13.86c7.020 0 12.822 5.22 13.735 11.99l0.008 0.071c0.070 0.527 0.11 1.135 0.11 1.754 0 3.542-1.315 6.776-3.484 9.242l0.013-0.016zM17.14 7h-2.4v7.8h-7.74v2.4h7.74v7.8h2.4v-7.8h7.86v-2.4h-7.86z"></path>
</svg>
